<?xml version="1.0" encoding="utf-8"?>
<!-- Generator: Adobe Illustrator 16.0.0, SVG Export Plug-In . SVG Version: 6.00 Build 0)  -->
<!DOCTYPE svg PUBLIC "-//W3C//DTD SVG 1.1//EN" "http://www.w3.org/Graphics/SVG/1.1/DTD/svg11.dtd">
<svg version="1.1" id="Layer_1" xmlns="http://www.w3.org/2000/svg" xmlns:xlink="http://www.w3.org/1999/xlink" x="0px" y="0px"
	 width="250px" height="300px" viewBox="0 0 250 300" enable-background="new 0 0 250 300" xml:space="preserve">
<g>
	<path d="M242.822,0c0.113,0.063,0.224,0.13,0.34,0.189c0.467,0.236,0.795,0.599,0.952,1.084c0.125,0.389,0.238,0.792,0.279,1.197
		c0.057,0.562,0.043,1.13,0.06,1.696c0.004,0.176,0.014,0.352,0.023,0.572c0.519,0.068,1.01,0.118,1.494,0.201
		c0.491,0.083,0.978,0.188,1.462,0.307c0.226,0.057,0.447,0.151,0.654,0.259c1.096,0.564,1.331,1.546,0.583,2.502
		c-0.221,0.283-0.49,0.542-0.78,0.758c-0.459,0.342-0.932,0.677-1.437,0.945c-1.04,0.551-2.088,1.087-3.159,1.574
		c-2.79,1.268-5.667,2.326-8.536,3.403c-0.292,0.11-0.58,0.23-0.884,0.35c-0.108,0.274-0.236,0.532-0.309,0.801
		c-0.313,1.143-0.648,2.281-0.899,3.437c-0.218,1.015-0.223,2.049,0.078,3.06c0.241,0.817,0.71,1.488,1.413,1.992
		c0.081,0.058,0.179,0.093,0.304,0.156c0.228-0.179,0.451-0.351,0.673-0.529c1.182-0.953,2.447-1.776,3.845-2.397
		c0.672-0.298,1.364-0.54,2.101-0.628c1.262-0.152,2.464,0.051,3.589,0.628c0.32,0.165,0.624,0.389,0.878,0.642
		c0.76,0.753,0.829,1.756,0.171,2.59c-0.236,0.3-0.532,0.582-0.855,0.787c-1.297,0.821-2.704,1.368-4.257,1.49
		c-1.848,0.146-3.673,0.01-5.464-0.48c-0.101-0.027-0.204-0.041-0.32-0.063c-0.334,0.179-0.523,0.497-0.755,0.77
		c-1.257,1.479-1.584,3.212-1.412,5.073c0.116,1.249,0.521,2.418,1.124,3.515c0.458,0.837,0.978,1.644,1.483,2.457
		c0.64,1.034,1.32,2.046,1.936,3.093c0.671,1.142,1.186,2.355,1.453,3.655c0.204,0.995,0.265,2-0.008,2.986
		c-0.631,2.279-2.192,3.631-4.501,4.175c-1.395,0.328-2.715,0.096-3.931-0.652c-1.827-1.124-2.522-3.496-1.975-5.292
		c0.628-2.052,2.725-2.865,4.424-2.24c1.034,0.379,1.692,1.112,1.89,2.192c0.139,0.751-0.082,1.432-0.523,2.042
		c-0.272,0.376-0.666,0.463-1.036,0.277c-0.396-0.199-0.541-0.611-0.365-1.058c0.047-0.119,0.129-0.224,0.18-0.343
		c0.28-0.651,0.055-1.232-0.591-1.551c-0.68-0.336-1.559-0.134-2.055,0.482c-0.233,0.288-0.38,0.617-0.423,0.983
		c-0.272,2.191,1.318,3.852,3.561,3.663c1.891-0.159,3.498-1.54,3.808-3.278c0.155-0.876,0.058-1.745-0.191-2.598
		c-0.238-0.82-0.551-1.615-0.984-2.353c-0.602-1.025-1.228-2.039-1.877-3.038c-0.662-1.021-1.341-2.033-1.875-3.127
		c-0.769-1.577-1.232-3.22-1.196-4.988c0.04-1.917,0.577-3.65,1.842-5.14c0.132-0.157,0.251-0.324,0.395-0.509
		c-0.144-0.136-0.271-0.263-0.406-0.38c-1.048-0.912-1.618-2.064-1.837-3.41c-0.219-1.352-0.035-2.668,0.301-3.975
		c0.167-0.646,0.348-1.288,0.534-1.973c-0.157-0.019-0.259-0.057-0.352-0.039c-1.828,0.354-3.606,0.127-5.361-0.412
		c-0.754-0.232-1.476-0.54-2.156-0.937c-0.706-0.412-1.339-0.904-1.828-1.563c-0.06-0.082-0.136-0.152-0.228-0.251
		c-0.175,0.048-0.35,0.084-0.517,0.146c-1.996,0.734-4.018,0.675-6.044,0.162c-0.955-0.242-1.789-0.745-2.55-1.347
		c-1.369-1.083-2.722-2.187-4.077-3.288c-0.545-0.443-1.068-0.915-1.616-1.356c-0.628-0.509-1.298-0.963-2.029-1.325
		c-0.566-0.281-1.155-0.506-1.783-0.593c-1.984-0.276-3.623,0.337-4.878,1.877c-0.454,0.556-0.688,1.213-0.774,1.917
		c-0.061,0.494,0.008,0.977,0.189,1.441c0.539,1.37,2.116,2.362,3.613,2.276c1.033-0.06,1.899-0.737,2.202-1.708
		c0.17-0.546,0.06-1.029-0.347-1.421c-0.426-0.409-0.942-0.402-1.47-0.212c-0.122,0.044-0.231,0.121-0.354,0.167
		c-0.47,0.179-0.875,0.058-1.093-0.322c-0.215-0.371-0.107-0.817,0.31-1.07c0.954-0.583,1.965-0.726,3-0.235
		c1.004,0.476,1.54,1.291,1.645,2.375c0.153,1.586-1,3.061-2.215,3.63c-0.858,0.403-1.752,0.49-2.689,0.343
		c-2.071-0.323-3.89-1.925-4.328-3.896c-0.284-1.283-0.079-2.522,0.598-3.653c1.116-1.86,2.813-2.877,4.977-3.14
		c1.507-0.184,2.923,0.155,4.259,0.843c0.865,0.445,1.657,0.997,2.403,1.609c0.524,0.429,1.025,0.886,1.552,1.313
		c1.292,1.052,2.587,2.103,3.896,3.139c0.743,0.59,1.565,1.042,2.52,1.215c1.518,0.275,3.029,0.319,4.5-0.251
		c0.17-0.066,0.331-0.149,0.473-0.215c0.175-0.238,0.088-0.475,0.076-0.698c-0.107-1.896,0.125-3.753,0.683-5.569
		c0.219-0.717,0.485-1.421,0.913-2.045c0.291-0.423,0.608-0.846,0.989-1.193c1.303-1.192,3.032-1.06,4.281-0.216
		c0.814,0.55,1.076,1.371,1.005,2.301c-0.054,0.673-0.255,1.314-0.554,1.922c-1.113,2.261-2.625,4.211-4.658,5.757
		c-0.165,0.126-0.333,0.25-0.495,0.381c-0.036,0.03-0.048,0.088-0.076,0.139c0.109,0.304,0.354,0.508,0.602,0.691
		c0.354,0.264,0.717,0.528,1.112,0.725c1.523,0.763,3.146,1.13,4.86,1.117c0.864-0.007,1.647-0.295,2.405-0.661
		c0.128-0.062,0.229-0.205,0.307-0.332c0.095-0.153,0.146-0.33,0.223-0.494c1.428-3.132,3.071-6.15,5.047-8.985
		c0.43-0.616,0.894-1.21,1.372-1.792c0.78-0.952,1.657-1.794,2.846-2.254C242.403,0,242.612,0,242.822,0z M247.358,7.013
		c-0.294-0.259-0.611-0.304-0.913-0.365c-0.981-0.196-1.973-0.283-2.972-0.314c-0.252-0.008-0.528,0.062-0.78-0.16
		c0.016-0.212,0.041-0.44,0.049-0.669c0.03-0.798,0.073-1.594,0.07-2.391c0-0.356-0.088-0.713-0.159-1.066
		c-0.022-0.115-0.116-0.218-0.19-0.348c-0.145,0.065-0.274,0.1-0.375,0.174c-0.23,0.169-0.46,0.344-0.667,0.54
		c-0.72,0.683-1.322,1.464-1.895,2.267c-1.75,2.455-3.209,5.071-4.522,7.77c-0.053,0.106-0.147,0.221-0.023,0.38
		c0.085-0.015,0.189-0.018,0.279-0.051c2.792-1.055,5.591-2.099,8.284-3.383c0.966-0.461,1.893-1.002,2.823-1.53
		C246.724,7.661,247.067,7.416,247.358,7.013z M223,10.083c0.31-0.082,0.481-0.282,0.667-0.446c1.405-1.231,2.505-2.692,3.358-4.332
		c0.179-0.342,0.319-0.707,0.425-1.076c0.079-0.266,0.089-0.556,0.097-0.835c0.007-0.309-0.157-0.538-0.432-0.684
		c-0.594-0.315-1.422-0.456-2.11,0.191c-0.224,0.211-0.441,0.448-0.597,0.71c-0.247,0.42-0.482,0.857-0.652,1.313
		c-0.577,1.561-0.83,3.18-0.811,4.839C222.946,9.857,222.976,9.949,223,10.083z M244.521,23.561
		c-0.253-0.475-0.689-0.664-1.138-0.808c-1.054-0.34-2.114-0.355-3.162,0.042c-1.333,0.507-2.531,1.242-3.654,2.102
		c-0.076,0.058-0.13,0.147-0.229,0.261c0.19,0.064,0.33,0.132,0.476,0.157c1.17,0.198,2.35,0.258,3.533,0.172
		c1.282-0.094,2.449-0.543,3.535-1.2C244.15,24.126,244.405,23.938,244.521,23.561z"/>
	<path d="M0,9.12c0.151,0.004,0.241-0.076,0.297-0.205c0.273-0.607,0.793-0.94,1.384-1.197c0.7-0.306,1.444-0.466,2.191-0.611
		c0.198-0.039,0.39-0.099,0.604-0.154c-0.04-0.561-0.098-1.071-0.109-1.582c-0.011-0.54-0.011-1.083,0.051-1.618
		C4.456,3.43,4.572,3.097,4.73,2.81c0.342-0.624,0.967-0.86,1.672-0.7C6.849,2.21,7.229,2.436,7.587,2.701
		C8.24,3.185,8.818,3.75,9.331,4.372c0.842,1.021,1.701,2.034,2.466,3.109c1.458,2.048,2.856,4.137,4.277,6.21
		c0.278,0.406,0.544,0.819,0.83,1.251c0.56,0.229,1.169,0.203,1.767,0.246c0.393,0.028,0.786,0.041,1.179,0.071
		c1.213,0.091,2.417,0.069,3.593-0.277c1.149-0.337,2.095-0.944,2.656-2.028c0.046-0.091,0.085-0.188,0.119-0.286
		c0.017-0.046,0.014-0.1,0.027-0.213c-0.192-0.153-0.412-0.33-0.633-0.503c-1.384-1.083-2.621-2.302-3.598-3.76
		c-0.733-1.091-1.039-2.296-1.009-3.59c0.014-0.544,0.094-1.085,0.312-1.584c0.153-0.35,0.346-0.702,0.603-0.984
		c0.559-0.617,1.269-0.782,2.077-0.516c0.564,0.187,1.022,0.532,1.413,0.955c0.978,1.062,1.764,2.242,2.181,3.628
		c0.479,1.592,0.694,3.221,0.646,4.882c-0.006,0.23,0,0.462,0,0.742c0.117,0.085,0.253,0.202,0.406,0.292
		c2.168,1.273,4.398,1.179,6.653,0.257c0.954-0.389,1.808-0.945,2.594-1.596c0.522-0.431,1.026-0.885,1.519-1.348
		c0.833-0.785,1.641-1.598,2.478-2.378c0.839-0.782,1.741-1.49,2.731-2.086c0.969-0.584,1.998-1.02,3.128-1.216
		c1.499-0.259,2.881,0.019,4.13,0.852c1.491,0.992,2.408,2.369,2.616,4.133c0.264,2.235-0.991,4.373-3.517,5.104
		c-0.823,0.238-1.655,0.274-2.484,0.013c-1.994-0.626-2.955-2.87-1.973-4.624c0.729-1.305,2.168-1.724,3.522-1.218
		c0.421,0.158,0.603,0.431,0.584,0.82c-0.02,0.417-0.332,0.733-0.759,0.729c-0.206-0.002-0.412-0.069-0.617-0.11
		c-0.613-0.124-1.085,0.11-1.342,0.668c-0.36,0.774,0.042,1.769,0.894,2.121c0.282,0.117,0.609,0.187,0.916,0.187
		c1.702,0.002,3.085-1.37,3.158-3.037c0.098-2.208-2.183-4.487-4.681-4.078c-0.924,0.151-1.765,0.482-2.563,0.942
		c-0.934,0.539-1.778,1.197-2.561,1.925c-0.857,0.797-1.69,1.619-2.533,2.434c-0.918,0.888-1.888,1.716-2.977,2.401
		c-1.626,1.025-3.395,1.592-5.341,1.648c-1.263,0.037-2.452-0.207-3.585-0.739c-0.279-0.131-0.56-0.26-0.864-0.4
		c-0.083,0.107-0.154,0.179-0.2,0.265c-0.926,1.731-2.457,2.62-4.349,3.011c-1.063,0.22-2.138,0.213-3.217,0.172
		c-0.547-0.021-1.097-0.003-1.658-0.003c0,0.079-0.025,0.163,0.002,0.223c0.594,1.268,0.773,2.613,0.775,3.99
		c0.004,0.982-0.095,1.953-0.353,2.906c-0.278,1.033-0.696,1.997-1.442,2.797c-0.051,0.056-0.087,0.127-0.145,0.216
		c0.075,0.125,0.145,0.26,0.23,0.386c0.771,1.139,1.169,2.405,1.363,3.748c0.17,1.164,0.189,2.315-0.188,3.439
		c-0.195,0.585-0.445,1.156-0.721,1.711c-0.766,1.552-1.569,3.086-2.446,4.583c-0.47,0.802-0.888,1.635-1.288,2.474
		c-0.346,0.726-0.547,1.498-0.639,2.3c-0.228,1.973,0.819,3.969,2.597,4.919c0.919,0.491,1.884,0.604,2.897,0.354
		c0.549-0.137,1.019-0.415,1.401-0.821c0.831-0.883,1.197-1.926,1.045-3.123c-0.14-1.101-0.997-1.944-2.104-2.11
		c-0.378-0.057-0.734,0.008-1.059,0.203c-0.579,0.345-0.783,1.018-0.479,1.615c0.104,0.205,0.267,0.379,0.397,0.572
		c0.269,0.402,0.223,0.838-0.111,1.113c-0.336,0.274-0.798,0.255-1.136-0.091c-0.85-0.871-1.164-1.905-0.771-3.057
		c0.397-1.157,1.275-1.814,2.51-1.94c2.039-0.208,3.942,1.178,4.322,3.162c0.364,1.91-0.187,3.578-1.601,4.935
		c-1.057,1.014-2.381,1.385-3.837,1.261c-2.933-0.249-5.034-2.553-5.584-5.035c-0.287-1.294-0.176-2.568,0.244-3.809
		c0.256-0.754,0.584-1.488,0.929-2.209c0.29-0.606,0.633-1.187,0.98-1.763c0.896-1.487,1.608-3.068,2.446-4.584
		c1.254-2.272,0.515-5.74-0.757-7.253c-0.032-0.039-0.076-0.067-0.159-0.139c-0.114,0.023-0.265,0.045-0.41,0.085
		c-2.05,0.555-4.131,0.73-6.244,0.513c-0.734-0.075-1.458-0.221-2.14-0.498c-0.386-0.157-0.766-0.347-1.109-0.577
		c-1.331-0.896-1.749-2.399-1.231-3.901c0.371-1.079,1.233-1.557,2.34-1.658c0.768-0.07,1.521,0.041,2.26,0.242
		c2.411,0.657,4.615,1.704,6.503,3.339c0.118,0.102,0.241,0.196,0.391,0.318c0.122-0.112,0.267-0.194,0.337-0.316
		c0.229-0.402,0.49-0.801,0.637-1.235c0.619-1.83,0.667-3.685,0.172-5.555c-0.195-0.745-0.642-1.346-1.093-1.949
		c-0.136-0.183-0.347-0.213-0.555-0.253c-2.582-0.496-5.106-1.189-7.597-2.014c-1.345-0.446-2.676-0.924-3.954-1.532
		c-0.684-0.326-1.354-0.682-2.005-1.068c-0.725-0.432-1.37-0.956-1.714-1.759C0.226,9.952,0.087,9.932,0,9.892
		C0,9.634,0,9.377,0,9.12z M1.868,9.515c0.202,0.398,0.533,0.608,0.853,0.824c0.958,0.644,2.007,1.112,3.076,1.541
		c2.746,1.106,5.583,1.93,8.466,2.608c0.085,0.02,0.182-0.007,0.33-0.017c-0.094-0.167-0.148-0.283-0.22-0.388
		c-1.379-2-2.74-4.016-4.153-5.995C9.544,7.142,8.783,6.253,8.029,5.364C7.663,4.932,7.232,4.548,6.813,4.161
		C6.63,3.991,6.441,3.798,6.123,3.795c-0.154,0.193-0.132,0.429-0.14,0.654c-0.04,0.982,0.098,1.949,0.261,2.913
		c0.056,0.321,0.155,0.645,0.061,1.013C6.009,8.417,5.724,8.447,5.441,8.499c-0.822,0.15-1.648,0.294-2.466,0.473
		C2.597,9.054,2.219,9.181,1.868,9.515z M14.187,26.448c-0.005-0.048,0.007-0.114-0.02-0.139c-0.131-0.124-0.265-0.247-0.412-0.353
		c-1.465-1.071-3.098-1.81-4.846-2.304c-0.401-0.113-0.816-0.198-1.23-0.241c-0.306-0.032-0.624,0-0.931,0.045
		c-0.447,0.067-0.664,0.372-0.745,0.788c-0.161,0.828,0.116,1.445,0.856,1.902c0.495,0.307,1.044,0.478,1.613,0.579
		c1.881,0.333,3.75,0.236,5.609-0.18C14.122,26.535,14.151,26.48,14.187,26.448z M26.607,10.57c0-0.307,0.014-0.485-0.001-0.662
		c-0.084-0.896-0.203-1.785-0.397-2.668c-0.284-1.292-0.914-2.403-1.764-3.401c-0.23-0.272-0.52-0.506-0.816-0.712
		c-0.256-0.178-0.511-0.098-0.645,0.196c-0.128,0.278-0.24,0.576-0.279,0.875c-0.156,1.163,0.067,2.246,0.757,3.229
		c0.779,1.11,1.714,2.077,2.769,2.937C26.303,10.422,26.4,10.457,26.607,10.57z"/>
	<path d="M8.673,299.999c-0.859-0.493-1.158-1.302-1.251-2.204c-0.061-0.588-0.055-1.181-0.078-1.774
		c-0.008-0.201-0.009-0.403-0.015-0.646c-0.452-0.056-0.869-0.091-1.279-0.162c-0.569-0.098-1.14-0.194-1.694-0.344
		c-0.323-0.087-0.643-0.242-0.92-0.427c-0.769-0.509-0.952-1.322-0.452-2.09c0.223-0.34,0.517-0.654,0.839-0.91
		c0.467-0.371,0.972-0.704,1.491-1.007c1.243-0.726,2.555-1.319,3.876-1.892c2.571-1.114,5.199-2.091,7.824-3.073
		c0.293-0.109,0.584-0.227,0.925-0.358c0.112-0.288,0.261-0.59,0.349-0.908c0.299-1.066,0.598-2.133,0.854-3.21
		c0.197-0.832,0.214-1.684,0.097-2.535c-0.167-1.201-0.748-2.105-1.832-2.798c-0.147,0.105-0.32,0.213-0.474,0.341
		c-1.132,0.93-2.339,1.748-3.67,2.384c-0.83,0.397-1.679,0.73-2.61,0.822c-1.207,0.119-2.363-0.064-3.438-0.615
		c-0.365-0.187-0.714-0.445-0.995-0.742c-0.694-0.729-0.743-1.672-0.135-2.469c0.231-0.305,0.523-0.589,0.843-0.8
		c1.215-0.804,2.556-1.317,4.015-1.486c1.927-0.224,3.827-0.05,5.699,0.445c0.125,0.034,0.255,0.049,0.366,0.068
		c0.866-0.69,1.651-1.874,1.931-2.87c0.482-1.722,0.373-3.416-0.238-5.086c-0.403-1.096-0.967-2.114-1.603-3.093
		c-0.479-0.739-0.977-1.468-1.454-2.208c-0.647-1.001-1.25-2.028-1.716-3.125c-0.511-1.194-0.841-2.423-0.864-3.739
		c-0.045-2.69,1.85-4.768,4.094-5.448c1.193-0.363,2.377-0.392,3.556,0.039c2.832,1.037,3.497,3.967,2.916,5.799
		c-0.65,2.05-2.772,2.832-4.451,2.2c-1.7-0.642-2.383-2.49-1.485-4.005c0.091-0.152,0.205-0.303,0.341-0.417
		c0.273-0.229,0.661-0.229,0.952-0.029c0.292,0.2,0.42,0.549,0.304,0.884c-0.059,0.169-0.16,0.324-0.233,0.489
		c-0.237,0.545-0.114,1.005,0.357,1.371c0.712,0.551,1.81,0.368,2.36-0.406c0.36-0.509,0.47-1.088,0.397-1.694
		c-0.303-2.469-2.511-3.274-4.38-2.739c-2.122,0.607-3.354,2.47-3.062,4.616c0.113,0.822,0.348,1.609,0.676,2.373
		c0.4,0.927,0.888,1.809,1.434,2.66c0.503,0.785,1.024,1.559,1.533,2.34c0.753,1.153,1.422,2.346,1.889,3.641
		c0.629,1.739,0.754,3.511,0.42,5.326c-0.22,1.196-0.738,2.246-1.483,3.203c-0.188,0.242-0.377,0.482-0.582,0.744
		c0.159,0.144,0.289,0.269,0.424,0.387c1.002,0.875,1.563,1.978,1.796,3.265c0.251,1.376,0.068,2.719-0.265,4.054
		c-0.151,0.6-0.326,1.192-0.484,1.791c-0.018,0.07-0.011,0.147-0.017,0.265c0.137,0,0.264,0.017,0.384-0.002
		c2.766-0.435,5.324,0.138,7.703,1.545c0.612,0.361,1.138,0.827,1.558,1.402c0.06,0.081,0.133,0.154,0.221,0.254
		c0.179-0.054,0.353-0.096,0.52-0.157c1.996-0.732,4.018-0.671,6.042-0.151c0.902,0.232,1.699,0.693,2.422,1.259
		c1.293,1.013,2.571,2.044,3.845,3.081c0.707,0.575,1.372,1.203,2.097,1.755c0.577,0.441,1.195,0.845,1.833,1.196
		c0.982,0.541,2.051,0.798,3.184,0.682c1.458-0.148,2.665-0.77,3.545-1.927c0.655-0.862,0.964-1.838,0.708-2.911
		c-0.326-1.356-1.279-2.144-2.576-2.581c-0.401-0.135-0.818-0.188-1.244-0.144c-1.017,0.104-1.89,0.832-2.141,1.792
		c-0.2,0.773,0.237,1.496,0.993,1.665c0.272,0.061,0.524,0.004,0.771-0.083c0.172-0.061,0.33-0.163,0.5-0.226
		c0.41-0.152,0.806-0.011,1.016,0.349c0.203,0.347,0.122,0.784-0.24,1.028c-0.748,0.506-1.581,0.696-2.473,0.487
		c-1.648-0.384-2.599-2.01-2.149-3.655c0.43-1.573,1.88-2.863,3.719-2.96c2.472-0.131,4.911,1.661,5.407,3.888
		c0.273,1.227,0.127,2.415-0.476,3.524c-1.024,1.881-2.666,2.931-4.781,3.299c-1.504,0.261-2.925-0.042-4.285-0.673
		c-0.74-0.343-1.425-0.777-2.064-1.273c-0.558-0.43-1.112-0.867-1.635-1.335c-1.28-1.149-2.627-2.219-3.988-3.273
		c-0.288-0.223-0.582-0.441-0.882-0.651c-0.853-0.597-1.806-0.916-2.85-1.018c-1.082-0.105-2.152-0.123-3.203,0.193
		c-0.372,0.111-0.75,0.222-1.068,0.439c0,0.266-0.007,0.495,0.001,0.723c0.087,2.027-0.157,4.012-0.853,5.927
		c-0.21,0.578-0.493,1.138-0.804,1.671c-0.219,0.375-0.513,0.72-0.828,1.025c-1.236,1.197-2.891,1.234-4.272,0.397
		c-0.924-0.56-1.224-1.441-1.121-2.467c0.07-0.699,0.294-1.36,0.615-1.985c1.123-2.193,2.606-4.105,4.604-5.609
		c0.204-0.154,0.403-0.313,0.613-0.477c-0.28-0.49-0.67-0.79-1.081-1.066c-0.766-0.517-1.614-0.854-2.504-1.102
		c-0.992-0.276-1.998-0.428-3.032-0.415c-0.866,0.011-1.646,0.298-2.407,0.656c-0.111,0.051-0.209,0.158-0.273,0.264
		c-0.093,0.153-0.15,0.328-0.225,0.493c-1.402,3.088-3.018,6.063-4.965,8.855c-0.607,0.87-1.291,1.69-1.973,2.506
		c-0.485,0.58-1.063,1.068-1.744,1.43c-0.061,0.032-0.099,0.106-0.148,0.161C9.619,299.999,9.146,299.999,8.673,299.999z
		 M16.985,287.24c-0.319,0.104-0.493,0.152-0.659,0.217c-1.754,0.68-3.521,1.333-5.258,2.055c-1.397,0.581-2.771,1.223-4.132,1.887
		c-0.653,0.318-1.259,0.735-1.872,1.129c-0.233,0.15-0.485,0.312-0.572,0.619c0.303,0.238,0.668,0.313,1.026,0.357
		c0.963,0.115,1.927,0.2,2.892,0.299c0.229,0.023,0.476-0.042,0.717,0.16c-0.021,0.226-0.06,0.479-0.067,0.732
		c-0.027,0.848-0.063,1.694-0.053,2.542c0.003,0.401,0.047,0.818,0.334,1.182c0.108-0.041,0.219-0.053,0.294-0.113
		c0.343-0.274,0.72-0.526,1.007-0.853c0.614-0.701,1.218-1.416,1.758-2.172c1.706-2.383,3.116-4.936,4.404-7.555
		C16.859,287.615,16.892,287.493,16.985,287.24z M28.838,290.002c-0.252,0.182-0.403,0.274-0.536,0.387
		c-1.509,1.276-2.672,2.815-3.563,4.555c-0.163,0.319-0.297,0.659-0.393,1.004c-0.073,0.268-0.083,0.557-0.086,0.836
		c-0.003,0.276,0.148,0.482,0.385,0.633c0.663,0.42,1.534,0.396,2.113-0.133c0.319-0.292,0.589-0.655,0.815-1.025
		c0.434-0.71,0.684-1.498,0.873-2.302C28.743,292.705,28.931,291.44,28.838,290.002z M7.341,276.557
		c0.299,0.447,0.386,0.532,0.872,0.727c1.035,0.413,2.101,0.487,3.158,0.133c1.506-0.506,2.843-1.318,4.059-2.32
		c0.017-0.014,0.016-0.048,0.034-0.12c-0.103-0.044-0.209-0.115-0.325-0.134c-1.272-0.223-2.559-0.295-3.845-0.174
		c-1.221,0.116-2.342,0.555-3.375,1.198C7.654,276.031,7.389,276.215,7.341,276.557z"/>
	<path d="M234.636,272.388c0.716-0.152,1.401-0.327,2.097-0.439c1.934-0.313,3.868-0.366,5.792,0.077
		c0.617,0.142,1.207,0.357,1.751,0.679c1.447,0.856,2.031,2.329,1.562,3.926c-0.273,0.923-0.897,1.484-1.837,1.73
		c-0.813,0.211-1.626,0.125-2.418-0.063c-2.486-0.596-4.746-1.649-6.705-3.283c-0.196-0.164-0.396-0.325-0.618-0.507
		c-0.444,0.407-0.692,0.883-0.888,1.387c-0.483,1.249-0.61,2.55-0.543,3.875c0.019,0.359,0.057,0.719,0.112,1.075
		c0.174,1.098,0.636,2.061,1.397,2.857c1.396,0.337,2.779,0.643,4.146,1.006c2.614,0.695,5.188,1.507,7.646,2.629
		c0.784,0.357,1.545,0.772,2.277,1.224c0.438,0.271,0.833,0.631,1.182,1.008c0.532,0.58,0.47,1.294,0.253,1.971
		c-0.078,0.242-0.337,0.468-0.57,0.614c-0.373,0.233-0.777,0.439-1.195,0.574c-0.598,0.191-1.218,0.308-1.831,0.454
		c-0.124,0.03-0.25,0.049-0.423,0.083c-0.008,0.168-0.028,0.315-0.018,0.46c0.025,0.386,0.058,0.771,0.097,1.155
		c0.063,0.594,0.025,1.185-0.085,1.77c-0.267,1.437-1.408,1.952-2.691,1.194c-0.424-0.249-0.83-0.556-1.17-0.906
		c-0.722-0.747-1.43-1.512-2.081-2.316c-1.504-1.857-2.843-3.831-4.166-5.815c-0.631-0.948-1.256-1.902-1.886-2.853
		c-0.155-0.236-0.317-0.472-0.48-0.714c-0.602-0.128-1.195-0.206-1.799-0.225c-0.525-0.017-1.049-0.036-1.573-0.081
		c-1.005-0.085-1.994,0.016-2.971,0.247c-0.617,0.146-1.191,0.402-1.705,0.774c-0.605,0.441-1.045,1-1.279,1.688
		c0.159,0.302,0.43,0.427,0.652,0.602c1.352,1.08,2.573,2.277,3.542,3.708c0.77,1.135,1.094,2.387,1.035,3.736
		c-0.031,0.701-0.18,1.381-0.538,1.999c-0.649,1.128-1.821,1.435-2.96,0.766c-0.267-0.157-0.519-0.354-0.743-0.568
		c-0.264-0.249-0.503-0.525-0.728-0.81c-1.017-1.286-1.664-2.73-1.949-4.337c-0.25-1.4-0.384-2.806-0.262-4.253
		c-0.151-0.108-0.284-0.233-0.441-0.311c-0.445-0.218-0.894-0.437-1.354-0.62c-0.615-0.243-1.262-0.343-1.928-0.338
		c-1.643,0.013-3.161,0.44-4.559,1.287c-1.013,0.611-1.915,1.358-2.761,2.169c-0.697,0.667-1.378,1.346-2.076,2.009
		c-0.965,0.916-1.978,1.775-3.116,2.48c-1.029,0.638-2.117,1.132-3.336,1.322c-2.263,0.352-4.076-0.421-5.502-2.125
		c-0.79-0.944-1.223-2.051-1.248-3.271c-0.031-1.401,0.436-2.637,1.524-3.592c1.069-0.94,2.328-1.375,3.767-1.263
		c2.068,0.161,3.495,2.102,3.002,4.074c-0.406,1.625-2.063,2.513-3.671,1.963c-0.123-0.042-0.248-0.089-0.357-0.157
		c-0.332-0.208-0.462-0.6-0.33-0.945c0.124-0.321,0.44-0.528,0.806-0.501c0.181,0.014,0.358,0.076,0.538,0.112
		c0.731,0.143,1.305-0.24,1.439-0.958c0.148-0.782-0.301-1.572-1.064-1.866c-0.401-0.155-0.818-0.201-1.239-0.118
		c-2.444,0.488-3.134,2.482-2.612,4.149c0.684,2.19,2.88,3.394,5.146,2.818c0.772-0.196,1.479-0.529,2.151-0.938
		c0.828-0.504,1.595-1.093,2.301-1.748c0.879-0.814,1.74-1.646,2.6-2.478c0.826-0.797,1.695-1.541,2.655-2.18
		c1.368-0.91,2.852-1.522,4.499-1.749c1.685-0.231,3.301-0.062,4.834,0.693c0.231,0.115,0.474,0.213,0.712,0.316
		c0.021,0.01,0.052,0.001,0.113,0.001c0.086-0.135,0.189-0.282,0.279-0.435c0.675-1.134,1.65-1.916,2.896-2.391
		c0.914-0.351,1.866-0.543,2.842-0.568c0.76-0.018,1.521,0.048,2.281,0.067c0.365,0.01,0.729,0.002,1.141,0.002
		c-0.05-0.172-0.079-0.319-0.136-0.455c-0.666-1.589-0.79-3.246-0.633-4.932c0.052-0.562,0.154-1.124,0.284-1.674
		c0.276-1.167,0.643-1.842,1.62-3.112c-0.118-0.195-0.25-0.41-0.377-0.626c-1.186-2.025-1.56-4.195-1.12-6.479
		c0.121-0.623,0.376-1.238,0.666-1.809c0.759-1.499,1.567-2.972,2.361-4.453c0.488-0.912,1.013-1.805,1.471-2.73
		c0.427-0.861,0.709-1.774,0.758-2.741c0.097-1.97-0.702-3.509-2.377-4.583c-0.887-0.569-1.868-0.782-2.936-0.541
		c-0.725,0.163-1.312,0.518-1.773,1.075c-0.717,0.863-1.004,1.857-0.852,2.96c0.168,1.218,1.259,2.119,2.461,2.057
		c1.091-0.057,1.645-1.085,1.071-1.998c-0.083-0.131-0.199-0.241-0.286-0.37c-0.276-0.41-0.241-0.836,0.085-1.114
		c0.36-0.305,0.819-0.272,1.191,0.116c0.461,0.479,0.763,1.042,0.852,1.706c0.27,2.025-1.475,3.496-3.401,3.262
		c-1.926-0.233-3.679-1.683-3.664-4.228c0.009-1.388,0.501-2.627,1.48-3.647c1.306-1.362,2.95-1.785,4.756-1.376
		c2.704,0.611,4.262,2.397,4.903,4.99c0.312,1.261,0.163,2.518-0.254,3.73c-0.269,0.778-0.61,1.534-0.969,2.277
		c-0.303,0.627-0.684,1.218-1.016,1.831c-0.765,1.41-1.509,2.828-2.285,4.232c-0.826,1.5-0.962,3.069-0.601,4.719
		c0.207,0.946,0.542,1.827,1.108,2.619C234.458,272.204,234.551,272.292,234.636,272.388z M248.396,290.736
		c-0.226-0.391-0.518-0.612-0.83-0.798c-0.558-0.334-1.123-0.661-1.707-0.949c-1.314-0.648-2.691-1.146-4.079-1.615
		c-1.761-0.593-3.548-1.1-5.355-1.537c-0.213-0.051-0.434-0.151-0.683-0.034c0.038,0.096,0.055,0.17,0.095,0.231
		c1.671,2.553,3.346,5.103,5.253,7.495c0.614,0.768,1.291,1.486,1.959,2.209c0.227,0.246,0.508,0.445,0.785,0.639
		c0.083,0.058,0.229,0.03,0.385,0.045c0.019-0.357,0.045-0.663,0.05-0.97c0.012-0.902-0.124-1.792-0.271-2.682
		c-0.046-0.274-0.139-0.55-0.037-0.871c0.163-0.032,0.339-0.067,0.515-0.099c0.901-0.158,1.808-0.293,2.704-0.48
		C247.603,291.232,248.041,291.113,248.396,290.736z M236.078,273.713c0.025,0.13,0.023,0.16,0.035,0.178
		c0.031,0.042,0.064,0.083,0.104,0.115c1.77,1.392,3.78,2.297,5.987,2.772c0.401,0.085,0.836,0.063,1.251,0.038
		c0.435-0.027,0.708-0.277,0.822-0.706c0.209-0.775-0.008-1.432-0.668-1.903c-0.474-0.339-1.021-0.519-1.585-0.644
		c-1.585-0.353-3.177-0.297-4.769-0.072C236.87,273.546,236.489,273.635,236.078,273.713z M226.924,297.197
		c0.436-0.226,0.531-0.634,0.602-1.034c0.204-1.156,0.019-2.248-0.638-3.246c-0.805-1.219-1.821-2.25-2.959-3.168
		c-0.049-0.04-0.133-0.037-0.263-0.07c0,0.188-0.007,0.336,0.002,0.484c0.052,0.949,0.18,1.888,0.386,2.819
		c0.292,1.313,0.942,2.439,1.812,3.456C226.15,296.772,226.462,297.085,226.924,297.197z"/>
	<path d="M229.873,244.47c-0.577,0.055-1.041,0.062-1.542,0.007c-0.023-0.16-0.053-0.282-0.057-0.404
		c-0.009-0.257-0.006-0.515-0.006-0.772c0-9.762,0.002-19.524,0-29.286c-0.008-19.446-0.02-38.893-0.031-58.339
		c-0.009-19.163-0.021-38.326-0.032-57.489c-0.006-14.218-0.012-28.436-0.018-42.654c0-0.332,0.009-0.662,0.014-1.031
		c0.525-0.14,1.013-0.083,1.541-0.055c0.036,0.15,0.087,0.292,0.097,0.436c0.017,0.257,0.006,0.515,0.006,0.772
		c0,13.239-0.001,26.478,0,39.718c0.005,19.523,0.012,39.048,0.018,58.571c0.006,17.979,0.011,35.957,0.017,53.936
		c0.003,11.849,0.009,23.697,0.012,35.544C229.892,243.755,229.88,244.084,229.873,244.47z"/>
	<path d="M21.329,56.439c0.529-0.166,1.018-0.106,1.554-0.062c0.03,0.152,0.076,0.294,0.085,0.438
		c0.015,0.23,0.006,0.463,0.006,0.695c0,8.628-0.003,17.256,0,25.886c0.004,19.625,0.012,39.253,0.018,58.878
		c0.005,16.279,0.011,32.557,0.016,48.834c0.004,17.619,0.008,35.236,0.014,52.853c0,0.333,0,0.666,0,1.008
		c-0.528,0.191-1.013,0.103-1.544,0.089c-0.031-0.18-0.069-0.324-0.075-0.47c-0.011-0.257-0.005-0.515-0.005-0.772
		c0-14.938,0.003-29.877-0.001-44.815c-0.005-18.365-0.019-36.729-0.029-55.093c-0.01-18.364-0.021-36.729-0.032-55.092
		c-0.006-10.482-0.012-20.966-0.019-31.449C21.316,57.062,21.324,56.756,21.329,56.439z"/>
	<path d="M16.497,245.079c-0.504,0-0.946,0-1.432,0c-0.038-0.147-0.097-0.287-0.107-0.43c-0.017-0.283-0.006-0.566-0.006-0.85
		c-0.002-17.436,0.001-34.872-0.002-52.308c-0.002-18.594-0.01-37.189-0.018-55.784c-0.008-18.312-0.018-36.624-0.03-54.934
		c-0.006-7.804-0.021-15.607-0.031-23.41c0-0.304-0.034-0.614,0.053-0.918c0.525-0.144,1.013-0.055,1.473-0.061
		c0.199,0.32,0.125,0.611,0.127,0.887c0.006,2.523,0.003,5.048,0.003,7.571c0,4.482,0,8.963,0,13.445
		c0.006,18.619,0.01,37.241,0.015,55.861c0.006,17.205,0.009,34.408,0.014,51.613c0.005,19.419,0.009,38.838,0.011,58.257
		C16.566,244.347,16.611,244.682,16.497,245.079z"/>
	<path d="M234.49,54.25c0.485-0.147,0.973-0.062,1.497-0.047c0.022,0.198,0.048,0.345,0.053,0.492
		c0.007,0.257,0.001,0.515,0.001,0.772c0,14.914-0.001,29.828,0.002,44.741c0.003,21.302,0.008,42.603,0.012,63.905
		c0.005,19.137,0.009,38.275,0.015,57.413c0.003,7.237,0.012,14.475,0.019,21.713c0,0.304-0.016,0.607-0.024,0.956
		c-0.534,0.077-1.016,0.081-1.513,0.002c-0.142-0.29-0.083-0.578-0.083-0.853c-0.004-4.354-0.003-8.706-0.004-13.06
		c-0.003-21.507-0.008-43.015-0.013-64.522c-0.005-19.19-0.01-38.378-0.015-57.567c-0.006-17.644-0.014-35.288-0.018-52.932
		C234.421,54.931,234.368,54.594,234.49,54.25z"/>
	<path d="M57.512,13.882c-0.096-0.577-0.102-1.051-0.005-1.568c0.177-0.021,0.327-0.047,0.478-0.054
		c0.184-0.009,0.368-0.003,0.551-0.003c44.348,0,88.696,0,133.044,0c0.338,0,0.673,0.013,1.04,0.02
		c0.139,0.529,0.045,1.009,0.07,1.516c-0.19,0.035-0.338,0.077-0.488,0.085c-0.235,0.013-0.474,0.004-0.71,0.004
		c-44.294,0-88.591,0-132.885,0C58.266,13.882,57.925,13.882,57.512,13.882z"/>
	<path d="M58.201,293.198c0-0.492,0-0.951,0-1.446c0.158-0.03,0.305-0.073,0.453-0.081c0.237-0.014,0.473-0.005,0.71-0.005
		c43.984,0,87.969,0,131.953,0.002c0.361,0,0.728-0.037,1.129,0.058c0.071,0.501,0.077,0.975-0.006,1.478
		c-0.145,0.026-0.268,0.062-0.396,0.068C190.248,293.357,58.913,293.293,58.201,293.198z"/>
	<path d="M192.689,6.182c0,0.554,0,1.01,0,1.505c-0.151,0.029-0.297,0.073-0.446,0.082c-0.235,0.014-0.473,0.005-0.709,0.005
		c-44.278,0.001-88.558,0.001-132.837,0c-0.362,0-0.725-0.011-1.126-0.018c-0.117-0.525-0.054-1-0.041-1.509
		c0.199-0.025,0.348-0.055,0.499-0.061c0.235-0.01,0.472-0.004,0.709-0.004c44.252,0,88.504,0,132.757,0
		C191.861,6.182,192.226,6.182,192.689,6.182z"/>
	<path d="M192.49,285.387c0,0.502,0,0.937,0,1.413c-0.154,0.037-0.298,0.09-0.442,0.101c-0.235,0.017-0.473,0.006-0.709,0.006
		c-43.988,0-87.977,0-131.964-0.003c-0.362,0-0.731,0.058-1.126-0.075c-0.093-0.458-0.051-0.915-0.023-1.413
		c0.145-0.033,0.288-0.085,0.435-0.095c0.235-0.016,0.474-0.006,0.71-0.006c43.988,0,87.976,0,131.964,0.002
		C191.695,285.318,192.062,285.271,192.49,285.387z"/>
</g>
</svg>
