<?xml version="1.0" encoding="utf-8"?>
<!-- Generator: Adobe Illustrator 16.0.0, SVG Export Plug-In . SVG Version: 6.00 Build 0)  -->
<!DOCTYPE svg PUBLIC "-//W3C//DTD SVG 1.1//EN" "http://www.w3.org/Graphics/SVG/1.1/DTD/svg11.dtd">
<svg version="1.1" id="Layer_1" xmlns="http://www.w3.org/2000/svg" xmlns:xlink="http://www.w3.org/1999/xlink" x="0px" y="0px"
	 width="800px" height="980px" viewBox="0 0 800 980" enable-background="new 0 0 800 980" xml:space="preserve">
<g>
	<path fill-rule="evenodd" clip-rule="evenodd" d="M777.03,0c0.361,0.207,0.718,0.427,1.089,0.619
		c1.494,0.77,2.544,1.956,3.047,3.541c0.4,1.273,0.762,2.59,0.894,3.912c0.181,1.836,0.137,3.691,0.19,5.541
		c0.015,0.574,0.044,1.148,0.073,1.869c1.66,0.223,3.232,0.385,4.78,0.656c1.572,0.273,3.13,0.615,4.678,1.004
		c0.723,0.184,1.431,0.492,2.095,0.842c3.506,1.846,4.258,5.053,1.865,8.174c-0.708,0.924-1.567,1.771-2.495,2.477
		c-1.47,1.115-2.983,2.211-4.6,3.088c-3.325,1.799-6.68,3.553-10.107,5.143c-8.926,4.141-18.135,7.598-27.314,11.117
		c-0.933,0.359-1.855,0.752-2.827,1.145c-0.347,0.896-0.757,1.734-0.991,2.615c-1.001,3.734-2.075,7.453-2.876,11.229
		c-0.698,3.314-0.713,6.691,0.249,9.996c0.771,2.668,2.271,4.859,4.521,6.508c0.259,0.189,0.571,0.305,0.972,0.51
		c0.728-0.586,1.445-1.148,2.153-1.729c3.784-3.111,7.832-5.803,12.305-7.83c2.153-0.977,4.365-1.762,6.724-2.051
		c4.038-0.496,7.886,0.166,11.484,2.051c1.025,0.539,1.997,1.27,2.812,2.096c2.432,2.459,2.651,5.736,0.547,8.459
		c-0.757,0.982-1.704,1.902-2.739,2.57c-4.15,2.682-8.652,4.469-13.623,4.867c-5.913,0.475-11.753,0.033-17.485-1.57
		c-0.322-0.088-0.654-0.133-1.025-0.207c-1.069,0.586-1.675,1.623-2.417,2.514c-4.023,4.832-5.068,10.494-4.517,16.57
		c0.371,4.078,1.67,7.9,3.594,11.482c1.47,2.736,3.13,5.371,4.746,8.027c2.051,3.377,4.224,6.684,6.196,10.105
		c2.148,3.73,3.794,7.691,4.648,11.938c0.654,3.25,0.85,6.537-0.024,9.756c-2.021,7.445-7.017,11.859-14.404,13.637
		c-4.463,1.072-8.687,0.314-12.578-2.131c-5.845-3.67-8.071-11.42-6.318-17.289c2.007-6.701,8.716-9.359,14.155-7.316
		c3.311,1.24,5.415,3.631,6.05,7.162c0.444,2.455-0.264,4.678-1.675,6.67c-0.869,1.229-2.129,1.514-3.315,0.904
		c-1.265-0.65-1.729-1.996-1.167-3.453c0.151-0.389,0.415-0.734,0.576-1.121c0.894-2.125,0.176-4.025-1.89-5.066
		c-2.178-1.098-4.99-0.436-6.577,1.576c-0.747,0.939-1.216,2.014-1.357,3.213c-0.869,7.156,4.219,12.58,11.396,11.963
		c6.05-0.52,11.191-5.027,12.183-10.709c0.498-2.859,0.186-5.699-0.61-8.486c-0.762-2.68-1.763-5.275-3.149-7.686
		c-1.929-3.348-3.931-6.66-6.006-9.922c-2.119-3.338-4.292-6.639-6.001-10.215c-2.461-5.152-3.945-10.518-3.828-16.295
		c0.127-6.264,1.846-11.924,5.894-16.791c0.425-0.512,0.806-1.059,1.265-1.662c-0.459-0.445-0.869-0.859-1.299-1.242
		c-3.354-2.977-5.176-6.744-5.879-11.139c-0.703-4.416-0.112-8.717,0.962-12.986c0.532-2.109,1.113-4.207,1.709-6.445
		c-0.503-0.061-0.83-0.184-1.123-0.125c-5.85,1.156-11.543,0.418-17.158-1.344c-2.412-0.758-4.722-1.764-6.899-3.061
		c-2.261-1.346-4.287-2.953-5.85-5.105c-0.19-0.268-0.435-0.496-0.728-0.822c-0.562,0.158-1.123,0.277-1.655,0.477
		c-6.387,2.4-12.856,2.207-19.341,0.531c-3.052-0.791-5.723-2.434-8.159-4.4c-4.38-3.539-8.711-7.141-13.047-10.74
		c-1.743-1.449-3.418-2.988-5.171-4.432c-2.012-1.662-4.155-3.145-6.494-4.326c-1.812-0.918-3.696-1.652-5.708-1.938
		c-6.348-0.9-11.592,1.104-15.61,6.133c-1.45,1.816-2.202,3.961-2.476,6.258c-0.195,1.613,0.024,3.191,0.605,4.709
		c1.724,4.475,6.772,7.717,11.562,7.436c3.306-0.195,6.079-2.41,7.046-5.58c0.547-1.783,0.195-3.359-1.108-4.641
		c-1.362-1.336-3.013-1.316-4.702-0.693c-0.391,0.145-0.742,0.395-1.133,0.547c-1.504,0.586-2.798,0.189-3.496-1.051
		c-0.688-1.213-0.342-2.67,0.991-3.498c3.052-1.902,6.289-2.371,9.6-0.766c3.213,1.555,4.927,4.215,5.264,7.76
		c0.488,5.182-3.203,9.996-7.09,11.859c-2.744,1.316-5.605,1.6-8.604,1.121c-6.626-1.055-12.446-6.291-13.848-12.727
		c-0.908-4.188-0.254-8.236,1.914-11.932c3.569-6.076,8.999-9.398,15.923-10.256c4.824-0.6,9.355,0.506,13.628,2.754
		c2.769,1.457,5.303,3.258,7.69,5.258c1.68,1.404,3.281,2.893,4.966,4.289c4.136,3.438,8.281,6.871,12.466,10.256
		c2.378,1.924,5.01,3.404,8.066,3.967c4.858,0.898,9.692,1.045,14.399-0.82c0.542-0.215,1.06-0.488,1.514-0.701
		c0.557-0.777,0.283-1.551,0.244-2.283c-0.342-6.193,0.396-12.258,2.183-18.191c0.703-2.342,1.553-4.644,2.92-6.679
		c0.933-1.384,1.948-2.768,3.164-3.899c4.17-3.894,9.702-3.463,13.701-0.706c2.603,1.796,3.442,4.479,3.213,7.517
		c-0.171,2.199-0.815,4.293-1.772,6.279c-3.56,7.387-8.403,13.756-14.907,18.807c-0.527,0.412-1.064,0.816-1.582,1.246
		c-0.117,0.098-0.156,0.289-0.244,0.455c0.347,0.992,1.133,1.658,1.924,2.258c1.133,0.863,2.295,1.725,3.56,2.369
		c4.873,2.492,10.068,3.691,15.552,3.646c2.764-0.021,5.269-0.963,7.695-2.156c0.41-0.203,0.732-0.67,0.981-1.084
		c0.303-0.5,0.469-1.076,0.713-1.613c4.57-10.232,9.829-20.09,16.152-29.352c1.377-2.011,2.861-3.952,4.39-5.852
		c2.495-3.107,5.303-5.86,9.106-7.361C775.688,0,776.356,0,777.03,0z M791.542,22.91c-0.938-0.848-1.953-0.994-2.92-1.193
		c-3.14-0.641-6.313-0.924-9.512-1.027c-0.806-0.027-1.689,0.201-2.495-0.523c0.049-0.693,0.127-1.439,0.156-2.189
		c0.093-2.604,0.234-5.207,0.225-7.809c0-1.162-0.283-2.33-0.508-3.482c-0.073-0.377-0.371-0.712-0.61-1.138
		c-0.464,0.214-0.879,0.329-1.201,0.57c-0.737,0.552-1.475,1.122-2.134,1.763c-2.305,2.23-4.233,4.781-6.064,7.402
		c-5.596,8.02-10.269,16.568-14.473,25.383c-0.166,0.346-0.469,0.721-0.073,1.242c0.273-0.049,0.605-0.057,0.894-0.168
		c8.936-3.447,17.891-6.855,26.509-11.051c3.091-1.504,6.06-3.271,9.033-4.998C789.516,25.025,790.614,24.225,791.542,22.91z
		 M713.598,32.939c0.991-0.266,1.538-0.922,2.134-1.457c4.497-4.023,8.018-8.793,10.747-14.152c0.571-1.115,1.021-2.309,1.362-3.514
		c0.249-0.869,0.283-1.814,0.308-2.729c0.024-1.009-0.503-1.758-1.382-2.233c-1.899-1.029-4.551-1.49-6.753,0.623
		c-0.718,0.691-1.411,1.464-1.909,2.32c-0.791,1.373-1.543,2.801-2.085,4.289c-1.846,5.098-2.656,10.387-2.598,15.809
		C713.427,32.199,713.52,32.5,713.598,32.939z M782.465,76.965c-0.811-1.551-2.207-2.168-3.643-2.639
		c-3.374-1.111-6.763-1.16-10.117,0.141c-4.268,1.656-8.101,4.053-11.694,6.865c-0.244,0.191-0.415,0.482-0.732,0.854
		c0.61,0.211,1.055,0.432,1.523,0.514c3.745,0.645,7.52,0.842,11.304,0.561c4.102-0.305,7.837-1.773,11.313-3.92
		C781.278,78.812,782.094,78.199,782.465,76.965z"/>
	<path fill-rule="evenodd" clip-rule="evenodd" d="M0,29.789c0.483,0.016,0.771-0.248,0.952-0.666
		c0.874-1.984,2.539-3.072,4.429-3.912c2.241-0.998,4.62-1.521,7.012-1.996c0.635-0.125,1.25-0.322,1.934-0.502
		c-0.127-1.832-0.312-3.498-0.347-5.168c-0.034-1.762-0.034-3.537,0.161-5.283c0.117-1.057,0.488-2.145,0.996-3.085
		c1.094-2.038,3.096-2.808,5.352-2.287c1.426,0.331,2.642,1.067,3.789,1.933c2.09,1.58,3.94,3.428,5.581,5.457
		c2.695,3.336,5.444,6.643,7.891,10.156c4.668,6.689,9.141,13.514,13.687,20.287c0.889,1.326,1.743,2.678,2.656,4.088
		c1.792,0.748,3.74,0.664,5.654,0.803c1.255,0.092,2.515,0.135,3.77,0.232c3.882,0.299,7.734,0.225,11.499-0.904
		c3.677-1.102,6.704-3.086,8.496-6.625c0.151-0.299,0.273-0.615,0.381-0.932c0.054-0.152,0.044-0.326,0.088-0.697
		c-0.615-0.5-1.318-1.078-2.026-1.645c-4.429-3.539-8.384-7.518-11.514-12.281c-2.344-3.566-3.325-7.5-3.228-11.729
		c0.044-1.777,0.303-3.543,1.001-5.174c0.488-1.143,1.108-2.294,1.929-3.215c1.787-2.016,4.062-2.553,6.646-1.682
		c1.807,0.609,3.271,1.736,4.521,3.117c3.13,3.469,5.645,7.324,6.982,11.854c1.533,5.201,2.222,10.521,2.065,15.947
		c-0.02,0.754,0,1.512,0,2.424c0.376,0.279,0.811,0.66,1.299,0.953c6.938,4.16,14.072,3.852,21.289,0.84
		c3.052-1.271,5.786-3.088,8.301-5.213c1.67-1.408,3.281-2.891,4.858-4.404c2.666-2.566,5.249-5.221,7.93-7.771
		c2.686-2.553,5.571-4.867,8.74-6.812c3.101-1.908,6.392-3.334,10.01-3.973c4.795-0.846,9.219,0.061,13.218,2.781
		c4.771,3.242,7.705,7.738,8.369,13.502c0.845,7.301-3.169,14.285-11.255,16.672c-2.632,0.777-5.293,0.895-7.949,0.041
		c-6.382-2.045-9.453-9.375-6.313-15.104c2.334-4.262,6.938-5.631,11.27-3.979c1.348,0.516,1.929,1.406,1.87,2.678
		c-0.063,1.363-1.06,2.396-2.427,2.381c-0.659-0.008-1.318-0.227-1.973-0.361c-1.963-0.402-3.472,0.361-4.297,2.184
		c-1.152,2.531,0.137,5.779,2.861,6.928c0.903,0.383,1.948,0.611,2.93,0.611c5.444,0.004,9.873-4.475,10.107-9.922
		c0.312-7.211-6.987-14.658-14.98-13.322c-2.959,0.494-5.649,1.576-8.203,3.08c-2.988,1.76-5.688,3.91-8.193,6.285
		c-2.744,2.605-5.41,5.291-8.105,7.951c-2.939,2.902-6.04,5.604-9.526,7.844c-5.205,3.348-10.864,5.199-17.09,5.383
		c-4.043,0.119-7.847-0.676-11.475-2.416c-0.894-0.428-1.792-0.85-2.764-1.307c-0.264,0.352-0.493,0.586-0.64,0.865
		c-2.964,5.656-7.861,8.559-13.916,9.838c-3.403,0.719-6.841,0.697-10.293,0.561c-1.753-0.068-3.511-0.01-5.308-0.01
		c0,0.256-0.078,0.529,0.01,0.727c1.899,4.143,2.471,8.537,2.48,13.033c0.01,3.209-0.303,6.381-1.128,9.494
		c-0.889,3.375-2.227,6.521-4.614,9.137c-0.166,0.184-0.278,0.416-0.464,0.707c0.239,0.408,0.464,0.85,0.737,1.262
		c2.466,3.721,3.74,7.854,4.36,12.244c0.542,3.801,0.605,7.562-0.601,11.234c-0.625,1.91-1.426,3.775-2.305,5.588
		c-2.451,5.07-5.02,10.08-7.827,14.973c-1.504,2.619-2.842,5.344-4.121,8.082c-1.108,2.371-1.748,4.895-2.046,7.514
		c-0.728,6.445,2.622,12.967,8.311,16.068c2.944,1.604,6.03,1.971,9.272,1.154c1.758-0.447,3.262-1.354,4.482-2.68
		c2.661-2.885,3.833-6.293,3.345-10.201c-0.449-3.596-3.188-6.35-6.733-6.893c-1.211-0.186-2.349,0.029-3.389,0.662
		c-1.851,1.127-2.505,3.326-1.533,5.275c0.332,0.67,0.854,1.238,1.27,1.869c0.864,1.316,0.713,2.74-0.356,3.635
		c-1.074,0.895-2.554,0.834-3.633-0.297c-2.72-2.844-3.726-6.223-2.466-9.986c1.27-3.779,4.082-5.928,8.032-6.338
		c6.523-0.678,12.612,3.848,13.828,10.328c1.167,6.242-0.596,11.691-5.122,16.121c-3.384,3.314-7.622,4.523-12.28,4.119
		c-9.385-0.814-16.108-8.338-17.871-16.449c-0.918-4.229-0.562-8.389,0.781-12.441c0.82-2.465,1.87-4.861,2.974-7.217
		c0.928-1.977,2.026-3.875,3.135-5.758c2.866-4.859,5.146-10.023,7.827-14.975c4.014-7.424,1.646-18.752-2.422-23.695
		c-0.103-0.125-0.244-0.221-0.508-0.453c-0.366,0.076-0.85,0.146-1.313,0.277c-6.558,1.812-13.218,2.385-19.98,1.676
		c-2.349-0.244-4.663-0.721-6.846-1.627c-1.235-0.514-2.451-1.133-3.55-1.887c-4.258-2.926-5.596-7.836-3.94-12.742
		c1.187-3.523,3.945-5.086,7.49-5.416c2.456-0.227,4.868,0.135,7.231,0.793c7.715,2.146,14.766,5.564,20.811,10.908
		c0.376,0.33,0.771,0.639,1.25,1.035c0.391-0.363,0.854-0.631,1.079-1.031c0.732-1.316,1.567-2.619,2.036-4.035
		c1.982-5.977,2.134-12.037,0.552-18.146c-0.625-2.432-2.056-4.396-3.496-6.365c-0.439-0.598-1.113-0.695-1.777-0.826
		c-8.262-1.619-16.343-3.885-24.312-6.58c-4.302-1.457-8.564-3.018-12.651-5.006c-2.188-1.064-4.336-2.227-6.417-3.49
		c-2.319-1.41-4.385-3.121-5.483-5.746C0.722,32.51,0.278,32.445,0,32.314C0,31.471,0,30.631,0,29.789z M5.976,31.082
		c0.645,1.301,1.704,1.988,2.729,2.693c3.067,2.102,6.426,3.631,9.844,5.033c8.784,3.613,17.866,6.305,27.09,8.521
		c0.273,0.064,0.581-0.025,1.055-0.053c-0.303-0.549-0.474-0.928-0.703-1.268c-4.414-6.537-8.77-13.121-13.291-19.586
		c-2.158-3.09-4.595-5.994-7.007-8.898c-1.172-1.414-2.549-2.666-3.892-3.932c-0.586-0.553-1.191-1.184-2.207-1.195
		c-0.493,0.631-0.425,1.402-0.449,2.135c-0.127,3.207,0.312,6.365,0.835,9.516c0.176,1.049,0.498,2.105,0.195,3.309
		c-0.947,0.139-1.86,0.238-2.764,0.406c-2.632,0.492-5.273,0.961-7.891,1.545C8.31,29.578,7.099,29.99,5.976,31.082z M45.396,86.395
		c-0.015-0.156,0.024-0.371-0.063-0.455c-0.42-0.404-0.85-0.805-1.318-1.152c-4.688-3.496-9.912-5.912-15.508-7.525
		c-1.284-0.371-2.612-0.646-3.936-0.789c-0.977-0.105-1.997-0.002-2.979,0.148c-1.431,0.219-2.124,1.215-2.383,2.572
		c-0.513,2.705,0.371,4.721,2.739,6.213c1.582,1,3.34,1.562,5.161,1.891c6.021,1.088,12.002,0.771,17.949-0.588
		C45.19,86.68,45.283,86.504,45.396,86.395z M85.142,34.529c0-1.002,0.044-1.586-0.005-2.162c-0.269-2.928-0.649-5.832-1.27-8.717
		c-0.908-4.221-2.925-7.848-5.645-11.111c-0.737-0.891-1.665-1.654-2.612-2.327c-0.82-0.583-1.636-0.318-2.065,0.64
		c-0.41,0.906-0.767,1.879-0.894,2.857c-0.498,3.799,0.215,7.338,2.422,10.547c2.495,3.625,5.488,6.785,8.862,9.592
		C84.17,34.045,84.478,34.16,85.142,34.529z"/>
	<path fill-rule="evenodd" clip-rule="evenodd" d="M27.754,980c-2.749-1.611-3.706-4.254-4.004-7.199
		c-0.195-1.92-0.176-3.859-0.249-5.793c-0.024-0.656-0.029-1.316-0.049-2.113c-1.445-0.182-2.778-0.297-4.092-0.527
		c-1.821-0.32-3.647-0.637-5.42-1.125c-1.035-0.285-2.056-0.791-2.944-1.393c-2.461-1.664-3.047-4.32-1.445-6.828
		c0.713-1.113,1.655-2.139,2.686-2.971c1.494-1.213,3.11-2.301,4.771-3.289c3.975-2.371,8.174-4.311,12.402-6.18
		c8.228-3.641,16.636-6.83,25.039-10.039c0.938-0.357,1.87-0.74,2.959-1.172c0.361-0.941,0.835-1.928,1.118-2.967
		c0.957-3.482,1.914-6.967,2.734-10.484c0.63-2.719,0.684-5.5,0.308-8.279c-0.532-3.926-2.393-6.879-5.859-9.143
		c-0.474,0.346-1.025,0.697-1.519,1.113c-3.623,3.039-7.485,5.709-11.743,7.789c-2.656,1.297-5.376,2.385-8.354,2.684
		c-3.862,0.389-7.563-0.209-11.001-2.008c-1.167-0.611-2.285-1.455-3.184-2.422c-2.222-2.383-2.378-5.463-0.435-8.066
		c0.742-0.994,1.675-1.922,2.7-2.613c3.887-2.627,8.179-4.303,12.847-4.855c6.167-0.729,12.246-0.164,18.237,1.455
		c0.4,0.109,0.815,0.158,1.172,0.225c2.769-2.254,5.283-6.121,6.177-9.379c1.543-5.623,1.196-11.156-0.762-16.613
		c-1.289-3.58-3.091-6.904-5.127-10.104c-1.533-2.412-3.125-4.793-4.653-7.209c-2.07-3.271-3.999-6.627-5.493-10.207
		c-1.636-3.904-2.69-7.916-2.764-12.215c-0.146-8.789,5.918-15.574,13.101-17.799c3.818-1.184,7.607-1.281,11.377,0.127
		c9.062,3.389,11.191,12.957,9.331,18.943c-2.08,6.697-8.872,9.25-14.243,7.186c-5.439-2.096-7.627-8.135-4.751-13.082
		c0.288-0.498,0.654-0.988,1.089-1.363c0.874-0.748,2.114-0.746,3.047-0.096c0.933,0.654,1.343,1.793,0.972,2.889
		c-0.19,0.553-0.513,1.057-0.747,1.596c-0.757,1.781-0.366,3.285,1.143,4.477c2.28,1.801,5.791,1.203,7.554-1.328
		c1.152-1.662,1.504-3.553,1.27-5.533c-0.972-8.066-8.037-10.695-14.019-8.947c-6.787,1.982-10.732,8.066-9.795,15.076
		c0.361,2.686,1.113,5.258,2.163,7.752c1.279,3.029,2.842,5.91,4.59,8.689c1.611,2.564,3.276,5.092,4.907,7.643
		c2.407,3.766,4.551,7.664,6.045,11.893c2.012,5.682,2.412,11.469,1.343,17.4c-0.703,3.906-2.363,7.336-4.746,10.461
		c-0.601,0.789-1.206,1.578-1.86,2.428c0.508,0.471,0.923,0.877,1.357,1.266c3.208,2.859,5,6.463,5.747,10.666
		c0.806,4.496,0.22,8.883-0.85,13.242c-0.483,1.959-1.04,3.896-1.548,5.85c-0.059,0.23-0.034,0.484-0.054,0.865
		c0.439,0,0.845,0.055,1.23-0.008c8.853-1.42,17.036,0.451,24.648,5.047c1.958,1.182,3.643,2.701,4.985,4.58
		c0.19,0.266,0.425,0.502,0.708,0.828c0.571-0.174,1.128-0.311,1.665-0.512c6.387-2.393,12.856-2.193,19.336-0.494
		c2.886,0.758,5.435,2.266,7.749,4.115c4.136,3.309,8.228,6.676,12.305,10.061c2.261,1.879,4.39,3.93,6.709,5.736
		c1.846,1.441,3.823,2.758,5.864,3.906c3.145,1.766,6.562,2.607,10.19,2.229c4.663-0.484,8.525-2.514,11.343-6.295
		c2.095-2.814,3.086-6.004,2.266-9.508c-1.04-4.43-4.092-7.004-8.242-8.43c-1.284-0.441-2.617-0.613-3.979-0.471
		c-3.257,0.338-6.05,2.719-6.851,5.855c-0.64,2.525,0.757,4.885,3.179,5.438c0.869,0.197,1.675,0.012,2.466-0.271
		c0.552-0.197,1.055-0.533,1.602-0.738c1.313-0.494,2.578-0.033,3.252,1.139c0.649,1.135,0.391,2.561-0.767,3.359
		c-2.393,1.654-5.059,2.273-7.915,1.592c-5.273-1.256-8.315-6.566-6.875-11.939c1.377-5.137,6.016-9.354,11.899-9.67
		c7.91-0.43,15.718,5.426,17.305,12.701c0.874,4.008,0.405,7.887-1.523,11.51c-3.276,6.148-8.53,9.576-15.298,10.777
		c-4.814,0.855-9.36-0.137-13.711-2.199c-2.368-1.121-4.561-2.539-6.606-4.158c-1.782-1.406-3.56-2.832-5.229-4.363
		c-4.097-3.754-8.408-7.248-12.764-10.691c-0.923-0.729-1.86-1.443-2.822-2.127c-2.729-1.949-5.781-2.992-9.121-3.326
		c-3.462-0.344-6.885-0.4-10.249,0.629c-1.191,0.365-2.397,0.727-3.418,1.436c0,0.867-0.024,1.615,0.005,2.361
		c0.278,6.623-0.503,13.107-2.729,19.363c-0.674,1.889-1.577,3.719-2.573,5.461c-0.703,1.223-1.641,2.352-2.651,3.348
		c-3.955,3.91-9.248,4.031-13.667,1.297c-2.959-1.83-3.916-4.709-3.589-8.057c0.225-2.283,0.942-4.445,1.968-6.486
		c3.594-7.164,8.34-13.41,14.731-18.324c0.654-0.502,1.289-1.023,1.963-1.559c-0.894-1.6-2.144-2.578-3.457-3.484
		c-2.451-1.689-5.166-2.789-8.013-3.6c-3.174-0.902-6.392-1.398-9.702-1.354c-2.773,0.037-5.269,0.973-7.7,2.143
		c-0.356,0.17-0.669,0.52-0.874,0.863c-0.298,0.5-0.479,1.072-0.718,1.609c-4.487,10.088-9.658,19.809-15.889,28.928
		c-1.943,2.842-4.131,5.521-6.313,8.186c-1.553,1.891-3.403,3.488-5.581,4.67c-0.195,0.105-0.317,0.348-0.474,0.527
		C30.781,980,29.268,980,27.754,980z M54.351,938.318c-1.021,0.34-1.577,0.498-2.109,0.711c-5.615,2.221-11.27,4.354-16.826,6.713
		c-4.473,1.898-8.867,3.998-13.223,6.164c-2.09,1.041-4.028,2.402-5.991,3.689c-0.747,0.492-1.553,1.02-1.831,2.021
		c0.972,0.781,2.139,1.023,3.286,1.166c3.081,0.377,6.167,0.654,9.253,0.977c0.732,0.076,1.523-0.139,2.295,0.523
		c-0.068,0.738-0.19,1.564-0.215,2.393c-0.088,2.768-0.2,5.535-0.171,8.303c0.01,1.312,0.151,2.674,1.069,3.861
		c0.347-0.131,0.703-0.174,0.942-0.367c1.099-0.898,2.305-1.721,3.223-2.787c1.963-2.289,3.896-4.625,5.625-7.094
		c5.459-7.785,9.971-16.125,14.097-24.68C53.95,939.547,54.053,939.146,54.351,938.318z M92.28,947.346
		c-0.806,0.594-1.289,0.896-1.714,1.264c-4.829,4.168-8.55,9.195-11.401,14.879c-0.522,1.043-0.952,2.154-1.255,3.281
		c-0.234,0.873-0.269,1.818-0.278,2.732c-0.01,0.9,0.474,1.576,1.23,2.066c2.124,1.373,4.912,1.293,6.763-0.434
		c1.021-0.955,1.885-2.141,2.607-3.35c1.387-2.318,2.188-4.891,2.793-7.516C91.978,956.172,92.578,952.041,92.28,947.346z
		 M23.491,903.424c0.957,1.461,1.235,1.738,2.788,2.373c3.311,1.35,6.724,1.592,10.107,0.434c4.819-1.652,9.097-4.307,12.988-7.578
		c0.054-0.043,0.049-0.158,0.107-0.391c-0.327-0.145-0.669-0.375-1.04-0.441c-4.072-0.725-8.188-0.963-12.305-0.566
		c-3.906,0.379-7.495,1.811-10.801,3.914C24.492,901.705,23.643,902.305,23.491,903.424z"/>
	<path fill-rule="evenodd" clip-rule="evenodd" d="M750.834,889.805c2.29-0.496,4.482-1.068,6.709-1.436
		c6.187-1.023,12.378-1.195,18.535,0.25c1.973,0.463,3.862,1.166,5.605,2.219c4.629,2.799,6.499,7.609,4.995,12.824
		c-0.874,3.016-2.871,4.85-5.879,5.65c-2.603,0.693-5.205,0.412-7.739-0.207c-7.954-1.943-15.186-5.387-21.455-10.723
		c-0.63-0.537-1.27-1.064-1.978-1.658c-1.421,1.328-2.217,2.883-2.842,4.531c-1.548,4.08-1.953,8.33-1.738,12.654
		c0.059,1.176,0.181,2.352,0.356,3.514c0.557,3.586,2.036,6.732,4.473,9.334c4.468,1.1,8.892,2.098,13.267,3.287
		c8.364,2.271,16.602,4.92,24.468,8.588c2.51,1.168,4.946,2.523,7.285,4c1.401,0.883,2.666,2.059,3.784,3.293
		c1.704,1.895,1.504,4.227,0.811,6.438c-0.249,0.791-1.079,1.531-1.826,2.008c-1.191,0.762-2.485,1.436-3.823,1.873
		c-1.914,0.625-3.901,1.006-5.859,1.484c-0.396,0.096-0.801,0.158-1.353,0.268c-0.024,0.547-0.088,1.029-0.059,1.504
		c0.083,1.26,0.186,2.518,0.312,3.773c0.2,1.941,0.078,3.871-0.273,5.781c-0.854,4.691-4.507,6.377-8.613,3.9
		c-1.357-0.814-2.656-1.816-3.745-2.961c-2.31-2.438-4.575-4.939-6.66-7.568c-4.814-6.066-9.097-12.514-13.33-18.996
		c-2.021-3.098-4.019-6.213-6.035-9.318c-0.498-0.773-1.016-1.541-1.538-2.336c-1.924-0.418-3.823-0.67-5.757-0.732
		c-1.68-0.055-3.359-0.119-5.034-0.264c-3.218-0.279-6.382,0.049-9.507,0.805c-1.973,0.479-3.813,1.312-5.454,2.531
		c-1.938,1.439-3.345,3.264-4.092,5.514c0.508,0.986,1.377,1.393,2.085,1.967c4.326,3.525,8.232,7.436,11.333,12.111
		c2.461,3.707,3.501,7.795,3.311,12.205c-0.098,2.289-0.576,4.512-1.719,6.529c-2.08,3.686-5.83,4.686-9.473,2.502
		c-0.854-0.514-1.66-1.156-2.378-1.854c-0.845-0.816-1.611-1.719-2.329-2.648c-3.252-4.201-5.322-8.92-6.235-14.168
		c-0.801-4.574-1.23-9.164-0.84-13.893c-0.483-0.355-0.908-0.762-1.411-1.016c-1.426-0.713-2.861-1.426-4.336-2.023
		c-1.968-0.793-4.038-1.119-6.167-1.104c-5.259,0.043-10.117,1.439-14.59,4.201c-3.242,1.998-6.128,4.438-8.838,7.09
		c-2.227,2.176-4.409,4.395-6.641,6.561c-3.086,2.992-6.328,5.799-9.971,8.102c-3.291,2.084-6.772,3.701-10.674,4.32
		c-7.241,1.148-13.042-1.375-17.607-6.943c-2.524-3.084-3.911-6.701-3.994-10.684c-0.098-4.576,1.396-8.615,4.878-11.734
		c3.423-3.072,7.451-4.49,12.056-4.125c6.616,0.525,11.182,6.867,9.604,13.307c-1.299,5.309-6.602,8.207-11.748,6.414
		c-0.391-0.137-0.791-0.291-1.143-0.514c-1.06-0.676-1.479-1.957-1.055-3.086c0.396-1.049,1.406-1.725,2.578-1.635
		c0.581,0.047,1.147,0.25,1.724,0.365c2.339,0.467,4.175-0.785,4.604-3.127c0.474-2.555-0.962-5.137-3.403-6.096
		c-1.284-0.506-2.617-0.658-3.965-0.385c-7.822,1.592-10.029,8.109-8.359,13.553c2.188,7.156,9.214,11.086,16.465,9.205
		c2.471-0.639,4.731-1.727,6.885-3.062c2.651-1.648,5.103-3.57,7.363-5.713c2.812-2.658,5.566-5.377,8.32-8.09
		c2.642-2.604,5.425-5.037,8.496-7.125c4.375-2.971,9.126-4.971,14.395-5.709c5.391-0.756,10.562-0.203,15.469,2.264
		c0.742,0.375,1.519,0.695,2.28,1.033c0.068,0.031,0.166,0.004,0.361,0.004c0.278-0.441,0.605-0.922,0.894-1.42
		c2.163-3.705,5.283-6.258,9.268-7.812c2.925-1.145,5.972-1.773,9.092-1.854c2.432-0.061,4.868,0.154,7.3,0.221
		c1.167,0.033,2.334,0.006,3.652,0.006c-0.161-0.562-0.254-1.043-0.435-1.488c-2.129-5.189-2.529-10.602-2.026-16.111
		c0.166-1.836,0.493-3.672,0.908-5.469c0.884-3.811,2.056-6.018,5.186-10.166c-0.376-0.639-0.801-1.338-1.206-2.047
		c-3.794-6.615-4.99-13.703-3.584-21.164c0.386-2.035,1.201-4.043,2.129-5.91c2.427-4.895,5.015-9.707,7.554-14.545
		c1.562-2.977,3.242-5.896,4.707-8.92c1.367-2.811,2.271-5.795,2.427-8.953c0.312-6.436-2.246-11.463-7.607-14.973
		c-2.837-1.859-5.977-2.551-9.395-1.764c-2.319,0.533-4.199,1.691-5.674,3.51c-2.295,2.822-3.213,6.068-2.725,9.672
		c0.537,3.977,4.028,6.922,7.876,6.719c3.491-0.184,5.264-3.545,3.428-6.527c-0.264-0.426-0.635-0.787-0.913-1.207
		c-0.884-1.34-0.771-2.732,0.273-3.639c1.152-0.996,2.622-0.889,3.813,0.379c1.475,1.566,2.441,3.404,2.725,5.572
		c0.864,6.615-4.722,11.418-10.884,10.656c-6.162-0.76-11.772-5.5-11.724-13.812c0.029-4.533,1.602-8.582,4.736-11.916
		c4.18-4.449,9.438-5.83,15.22-4.496c8.652,1.998,13.638,7.832,15.688,16.301c1.001,4.119,0.522,8.223-0.811,12.186
		c-0.859,2.541-1.953,5.01-3.101,7.438c-0.967,2.049-2.188,3.977-3.252,5.98c-2.446,4.604-4.829,9.238-7.31,13.824
		c-2.646,4.902-3.081,10.027-1.924,15.414c0.664,3.09,1.733,5.967,3.55,8.557C750.263,889.201,750.561,889.49,750.834,889.805z
		 M794.867,949.742c-0.723-1.275-1.66-2-2.656-2.607c-1.787-1.092-3.594-2.16-5.464-3.102c-4.204-2.117-8.613-3.746-13.052-5.277
		c-5.635-1.939-11.353-3.592-17.134-5.018c-0.684-0.168-1.392-0.494-2.188-0.113c0.122,0.314,0.176,0.557,0.303,0.756
		c5.347,8.338,10.708,16.668,16.812,24.482c1.963,2.51,4.131,4.857,6.27,7.219c0.723,0.799,1.626,1.451,2.51,2.086
		c0.264,0.189,0.732,0.098,1.23,0.148c0.063-1.166,0.146-2.166,0.161-3.168c0.039-2.949-0.396-5.855-0.869-8.758
		c-0.146-0.898-0.444-1.797-0.117-2.846c0.522-0.102,1.084-0.219,1.646-0.32c2.886-0.516,5.786-0.959,8.652-1.572
		C792.328,951.363,793.729,950.973,794.867,949.742z M755.448,894.133c0.078,0.426,0.073,0.523,0.112,0.584
		c0.098,0.135,0.205,0.271,0.332,0.375c5.664,4.547,12.095,7.504,19.16,9.055c1.284,0.281,2.676,0.207,4.004,0.123
		c1.392-0.088,2.266-0.906,2.632-2.305c0.669-2.535-0.029-4.68-2.139-6.219c-1.519-1.109-3.267-1.693-5.073-2.104
		c-5.073-1.152-10.166-0.969-15.259-0.234C757.982,893.588,756.762,893.877,755.448,894.133z M726.156,970.848
		c1.396-0.74,1.699-2.076,1.924-3.379c0.654-3.777,0.063-7.344-2.041-10.602c-2.573-3.982-5.825-7.348-9.468-10.348
		c-0.156-0.129-0.425-0.121-0.84-0.229c0,0.615-0.024,1.1,0.005,1.582c0.166,3.102,0.576,6.168,1.235,9.209
		c0.933,4.291,3.013,7.967,5.796,11.289C723.681,969.461,724.677,970.48,726.156,970.848z"/>
	<path fill-rule="evenodd" clip-rule="evenodd" d="M735.59,798.605c-1.846,0.178-3.33,0.205-4.932,0.025
		c-0.073-0.523-0.171-0.92-0.181-1.32c-0.029-0.84-0.02-1.682-0.02-2.523c0-31.889,0.01-63.779,0-95.668
		c-0.024-63.525-0.063-127.051-0.098-190.576c-0.029-62.6-0.068-125.199-0.103-187.799c-0.02-46.445-0.039-92.889-0.059-139.336
		c0-1.082,0.029-2.162,0.044-3.367c1.68-0.457,3.242-0.27,4.932-0.18c0.112,0.49,0.278,0.951,0.308,1.422
		c0.054,0.84,0.02,1.682,0.02,2.523c0,43.248-0.005,86.496,0,129.746c0.015,63.777,0.039,127.555,0.059,191.334
		c0.02,58.729,0.034,117.459,0.054,176.189c0.01,38.705,0.029,77.41,0.039,116.113C735.653,796.268,735.614,797.344,735.59,798.605z
		"/>
	<path fill-rule="evenodd" clip-rule="evenodd" d="M68.252,184.369c1.694-0.541,3.257-0.348,4.971-0.199
		c0.098,0.496,0.244,0.959,0.273,1.43c0.049,0.754,0.02,1.514,0.02,2.271c0,28.186-0.01,56.371,0,84.559
		c0.015,64.111,0.039,128.227,0.059,192.338c0.015,53.176,0.034,106.352,0.049,159.525c0.015,57.551,0.029,115.102,0.044,172.65
		c0,1.088,0,2.176,0,3.293c-1.689,0.625-3.242,0.336-4.941,0.289c-0.098-0.588-0.22-1.059-0.239-1.535
		c-0.034-0.838-0.015-1.682-0.015-2.523c0-48.799,0.01-97.6-0.005-146.398c-0.015-59.99-0.059-119.98-0.093-179.969
		c-0.034-59.99-0.068-119.98-0.103-179.969c-0.02-34.244-0.039-68.488-0.059-102.732C68.213,186.4,68.237,185.404,68.252,184.369z"
		/>
	<path fill-rule="evenodd" clip-rule="evenodd" d="M52.788,800.594c-1.611,0-3.027,0-4.58,0c-0.122-0.482-0.312-0.938-0.342-1.404
		c-0.054-0.922-0.02-1.85-0.02-2.775c-0.005-56.957,0.005-113.914-0.005-170.873c-0.01-60.742-0.034-121.486-0.059-182.229
		c-0.024-59.818-0.059-119.637-0.098-179.453c-0.02-25.492-0.068-50.982-0.098-76.473c0-0.994-0.107-2.006,0.171-2.998
		c1.68-0.469,3.242-0.18,4.712-0.199c0.635,1.045,0.4,1.994,0.405,2.895c0.02,8.244,0.01,16.49,0.01,24.734
		c0,14.639,0,29.279,0,43.918c0.02,60.826,0.034,121.654,0.049,182.482c0.02,56.199,0.029,112.4,0.044,168.6
		c0.015,63.436,0.029,126.873,0.034,190.309C53.013,798.203,53.154,799.297,52.788,800.594z"/>
	<path fill-rule="evenodd" clip-rule="evenodd" d="M750.365,177.217c1.553-0.48,3.115-0.201,4.79-0.152
		c0.073,0.646,0.156,1.125,0.171,1.607c0.024,0.84,0.005,1.682,0.005,2.523c0,48.719-0.005,97.436,0.005,146.154
		c0.01,69.586,0.024,139.17,0.039,208.756c0.015,62.516,0.029,125.033,0.049,187.551c0.01,23.643,0.039,47.287,0.059,70.93
		c0,0.992-0.049,1.984-0.078,3.121c-1.709,0.254-3.252,0.266-4.839,0.008c-0.454-0.947-0.264-1.887-0.264-2.787
		c-0.015-14.221-0.01-28.439-0.015-42.66c-0.01-70.258-0.024-140.516-0.039-210.775c-0.015-62.686-0.034-125.369-0.049-188.055
		c-0.02-57.637-0.044-115.273-0.054-172.91C750.146,179.443,749.975,178.342,750.365,177.217z"/>
	<path fill-rule="evenodd" clip-rule="evenodd" d="M184.038,45.348c-0.308-1.885-0.327-3.434-0.015-5.123
		c0.566-0.068,1.045-0.152,1.528-0.176c0.586-0.031,1.177-0.01,1.763-0.01c141.913,0,283.827,0,425.741,0.002
		c1.079,0,2.153,0.041,3.325,0.062c0.444,1.727,0.146,3.295,0.225,4.951c-0.61,0.113-1.084,0.25-1.562,0.279
		c-0.752,0.043-1.514,0.014-2.271,0.014c-141.743,0-283.491,0-425.233,0C186.45,45.348,185.361,45.348,184.038,45.348z"/>
	<path fill-rule="evenodd" clip-rule="evenodd" d="M186.24,957.781c0-1.605,0-3.105,0-4.723c0.508-0.098,0.977-0.238,1.45-0.266
		c0.757-0.045,1.514-0.016,2.271-0.016c140.751,0,281.503,0,422.25,0.006c1.157,0,2.329-0.121,3.613,0.188
		c0.229,1.635,0.244,3.186-0.02,4.828c-0.464,0.084-0.859,0.203-1.265,0.223C608.793,958.303,188.521,958.094,186.24,957.781z"/>
	<path fill-rule="evenodd" clip-rule="evenodd" d="M616.605,20.195c0,1.811,0,3.299,0,4.918c-0.483,0.094-0.952,0.236-1.426,0.266
		c-0.752,0.045-1.514,0.016-2.271,0.016c-141.689,0.002-283.384,0.002-425.077-0.002c-1.157,0-2.319-0.035-3.604-0.057
		c-0.376-1.717-0.176-3.268-0.132-4.93c0.635-0.082,1.113-0.18,1.597-0.199c0.752-0.031,1.509-0.012,2.271-0.012
		c141.605,0,283.212,0,424.823,0C613.954,20.195,615.121,20.195,616.605,20.195z"/>
	<path fill-rule="evenodd" clip-rule="evenodd" d="M615.966,932.268c0,1.641,0,3.061,0,4.617c-0.493,0.119-0.952,0.293-1.416,0.328
		c-0.752,0.057-1.514,0.021-2.271,0.021c-140.762,0-281.523,0-422.284-0.01c-1.157,0-2.339,0.188-3.604-0.246
		c-0.298-1.496-0.161-2.988-0.073-4.615c0.464-0.107,0.923-0.277,1.392-0.311c0.752-0.053,1.514-0.018,2.271-0.018
		c140.761,0,281.522,0,422.284,0.008C613.422,932.043,614.599,931.889,615.966,932.268z"/>
</g>
</svg>
